PathFileType	4	(X/Y/Z)	pose2sim_0-881.trc
DataRate	CameraRate	NumFrames	NumMarkers	Units	OrigDataRate	OrigDataStartFrame	OrigNumFrames
50	50	5	22	m	50	771	882
Frame#	Time	Hip			RHip			RKnee			RAnkle			RBigToe			RSmallToe			RHeel			LHip			LKnee			LAnkle			LBigToe			LSmallToe			LHeel			Neck			Head			Nose			RShoulder			RElbow			RWrist			LShoulder			LElbow			LWrist			
		X1	Y1	Z1	X2	Y2	Z2	X3	Y3	Z3	X4	Y4	Z4	X5	Y5	Z5	X6	Y6	Z6	X7	Y7	Z7	X8	Y8	Z8	X9	Y9	Z9	X10	Y10	Z10	X11	Y11	Z11	X12	Y12	Z12	X13	Y13	Z13	X14	Y14	Z14	X15	Y15	Z15	X16	Y16	Z16	X17	Y17	Z17	X18	Y18	Z18	X19	Y19	Z19	X20	Y20	Z20	X21	Y21	Z21	X22	Y22	Z22	
771	15.42	0.1374983085806109	0.9762402684223498	-0.03324469620593927	0.035875550651803666	0.9595571125044658	-0.028950720882120074	0.016603386742569136	0.5173174488713455	-0.060729314333175265	0.002366189683392587	0.09181098420630869	-0.09721897561701887	0.015346159018758897	0.03675307486623661	0.09024666819657703	-0.041969246037831476	0.03805218781083105	0.051559404532166994	0.008855086774418288	0.04626606903171697	-0.13457151734371575	0.24225725486728933	0.9565538709862819	-0.0410097279710867	0.24141556856322385	0.515833984080294	-0.10244547875570503	0.24379045041298916	0.08769817618935091	-0.11604215213521533	0.2707180664974829	0.037361941996602574	0.0714635504368314	0.31361753756562494	0.03783907383462815	0.012186320687116595	0.23463032841481776	0.04351194326556075	-0.14921837153377351	0.16239128845474876	1.5759000699386818	-0.054124004311452006	0.1557318376092981	1.824383739889065	-0.021487980127150107	0.15130237903636756	1.6966368237808995	0.09122647154195909	0.0038125848440546165	1.4720246432800084	-0.04499872915357864	-0.07211970093156196	1.2021415917298701	-0.0031170882268003746	-0.1829037196104678	1.0054466585376682	0.12142344195833156	0.32834757435644857	1.459312693501576	-0.08588211673790803	0.3787576179454742	1.1912608838776282	-0.029707276534486418	0.453147171965592	0.9560259973342091	0.026408422535185536
772	15.44	0.13801783817508045	0.9794528512831335	-0.03482562703087447	0.036720502025046405	0.9602685180892747	-0.022987452733369804	0.01572320906808925	0.5154539602365955	-0.056773939244809994	0.002349105831546437	0.0930284417736878	-0.09114377704123593	0.009775162502271145	0.04671983142968698	0.10705458365776198	-0.03809358535068984	0.038996156792311415	0.05884833556265031	0.012792469308979667	0.04689564449872155	-0.12529111930987652	0.23916666098221429	0.9570294905364075	-0.03701808316521969	0.24101997094988586	0.5129291759820365	-0.09602217609951715	0.24366230531705385	0.08783642693833177	-0.11633383448831743	0.27816294696289573	0.04223922614160509	0.07675647550625098	0.31821662860574523	0.03786263984728213	0.01607057740868585	0.23141032294499492	0.0444903550122793	-0.14603077245055446	0.16513128914624267	1.5756424262308095	-0.051740007719724	0.16187072134303918	1.8238423296039432	-0.013737381122601375	0.15491798268924017	1.6938929470414783	0.0940794716156327	0.001268899269189208	1.4695553430869803	-0.048756047020520325	-0.07190425679211285	1.1965716334369305	-0.0019912681133712313	-0.18318321046953054	0.9960092509323231	0.12233786216236511	0.32966803818935014	1.461180873729703	-0.08048649277638213	0.3762415930805212	1.1873379283424625	-0.03881598894590506	0.44753299858061757	0.9509307737960887	0.008016454743804715
773	15.46	0.14015640691802825	0.9745305306942847	-0.03366563490091254	0.04046763837914797	0.9586315431997888	-0.026586861436186843	0.017741661029190423	0.5180585454147267	-0.06514232028761915	0.0020605535772217844	0.0907963629988499	-0.10091756304887738	0.013592456409670587	0.0371460439262922	0.09000279985684898	-0.041239637815241134	0.03701053875756329	0.05202353862746382	0.008600375515097061	0.04357546606292049	-0.13530678104366087	0.2403704839307881	0.9546459670368621	-0.04369107992591453	0.24108146975097164	0.5150667356670133	-0.10130794675100852	0.2465487832600268	0.0850696489481113	-0.11213582510720345	0.27144897835219084	0.03428231319795201	0.07155620765256802	0.31556106493013064	0.03667102018412638	0.009894413020915864	0.23541952393615553	0.04125567387805034	-0.15101346063940885	0.16688898707215907	1.5775418939549828	-0.04460751051608318	0.15865712564165926	1.8231248692311304	-0.01590735288063449	0.1555820062775933	1.6963078732124826	0.09843356628335417	0.00574022521642676	1.472882578968243	-0.03591422475220467	-0.07217459256483219	1.1997281957905888	-0.006253796627374641	-0.18096610178458783	0.9900222810852441	0.100034125559352	0.3293471365059176	1.4614352038813079	-0.08012748362496921	0.3757253262312242	1.190228983284188	-0.04349614296548159	0.4478626315484785	0.9546033941412521	-0.0010602231197202943
774	15.48	0.14117747109586	0.9756822738350259	-0.031510847286911746	0.03662774890752174	0.9628577846547738	-0.02765951179513753	0.01716637480515365	0.5198049619648043	-0.06051447052391765	0.004228028657509807	0.08985382164173344	-0.10205479516097841	0.00981911807881965	0.03351730934109229	0.09401625957770424	-0.044285874859572034	0.03612786097081542	0.053878421460243325	0.010676948833366836	0.0441415296470147	-0.1349013088231698	0.24455132417125963	0.9585786419114364	-0.04286260921798155	0.24364398530754344	0.5155537261946151	-0.10713344629839022	0.2446277080001143	0.084353303056504	-0.11552616204800452	0.2706126440308576	0.03209558827699449	0.06745890086604538	0.3135899368529157	0.036260834750832006	0.009811072072495024	0.23404318090780368	0.040441071815875675	-0.147741685849523	0.16607091566172033	1.5764753767021966	-0.046762866486236426	0.16121780234091926	1.8235736285528605	-0.011677913343202817	0.1567753652858182	1.6942868867603578	0.1084665756081229	0.0060599044156776785	1.4727333532925064	-0.04149477124306301	-0.07215363452918619	1.1988380035206925	-0.011251906529932434	-0.18072985078756687	0.9872144980814893	0.08230302383515418	0.33367455851938344	1.4626823128922366	-0.08064057848141885	0.37522997215461534	1.1880801187647958	-0.052456546265382244	0.4462654025661647	0.9493678451661165	-0.006739437470917592
775	15.5	0.1410433667590801	0.976642733016558	-0.03644900330573334	0.039509878042610316	0.962527961553027	-0.0311547961471038	0.015727187905878848	0.5184267165271617	-0.060017656512520584	0.0030575047911364293	0.09056022540650815	-0.09723304465775362	0.008321776636657062	0.03683758856626083	0.0919488329208599	-0.0448141624692201	0.03657862878583728	0.05395182743866531	0.007843763516025315	0.042011250979913636	-0.13495091094603362	0.2418173325430896	0.9569273658334334	-0.04772140584803701	0.24246310789248188	0.513905765793624	-0.10470630935994926	0.24712950705886338	0.08800208681853366	-0.11024488424472792	0.2705224192759362	0.03423437584499839	0.060860012977848994	0.3140723897547547	0.0381959577005294	0.007860291313888655	0.23650246088287455	0.042616578311193	-0.14346728599403355	0.16496622358656954	1.5781098608202495	-0.0467630212669192	0.16187120058847074	1.8259079489423844	-0.002624501226376556	0.15918392286124244	1.695561287993292	0.1207429892034764	0.007504104753766045	1.472983059343033	-0.04091345141646577	-0.07076951013362413	1.198486644073006	-0.009616871155080689	-0.17829753499620163	0.9813372936484444	0.0835540818433364	0.32976976670493585	1.4629882545366066	-0.0812121666262674	0.3741423875491306	1.1868201818106283	-0.05512980723784949	0.44499290084028237	0.9471890769059959	-0.013578386298124277
